<svg width="60" height="60" viewBox="0 0 100 100" fill="none" xmlns="http://www.w3.org/2000/svg">
<g clip-path="url(#clip0_166_118)">
<g clip-path="url(#clip1_166_118)">
<path d="M63.7695 14.2188C63.7695 6.52344 57.5 0.253906 49.8047 0.253906C42.1094 0.253906 35.8398 6.52344 35.8398 14.2188C35.8398 20.5664 40.0977 25.918 45.8984 27.6172V92.9688C45.8984 95.1172 47.6562 96.875 49.8047 96.875C51.9531 96.875 53.7109 95.1172 53.7109 92.9688V27.6172C59.5117 25.918 63.7695 20.5664 63.7695 14.2188ZM49.8047 20.3711C46.4062 20.3711 43.6523 17.6172 43.6523 14.2188C43.6523 10.8203 46.4062 8.06641 49.8047 8.06641C53.2031 8.06641 55.957 10.8203 55.957 14.2188C55.957 17.6172 53.2031 20.3711 49.8047 20.3711Z" fill="url(#paint0_linear_166_118)"/>
<path d="M86.0742 20.7617C79.0234 20.7617 73.1836 26.0156 72.2461 32.8125H68.3594C65.4102 32.8125 63.0664 34.1602 61.7578 36.582C60.6836 38.5938 60.5469 40.957 60.5469 42.5781V96.0938C60.5469 98.2422 62.3047 100 64.4531 100C66.6016 100 68.3594 98.2422 68.3594 96.0938V42.5781C68.3594 41.543 68.4375 40.957 68.5156 40.625H73.4375C75.6641 45.3906 80.4883 48.6914 86.0938 48.6914C93.7891 48.6914 100.059 42.4219 100.059 34.7266C100.059 27.0312 93.7695 20.7617 86.0742 20.7617ZM86.0742 40.8789C82.6758 40.8789 79.9219 38.125 79.9219 34.7266C79.9219 31.3281 82.6758 28.5742 86.0742 28.5742C89.4727 28.5742 92.2266 31.3281 92.2266 34.7266C92.2266 38.125 89.4727 40.8789 86.0742 40.8789Z" fill="url(#paint1_linear_166_118)"/>
<path d="M29.2969 32.8125H27.6367C26.6992 26.0156 20.8594 20.7617 13.8086 20.7617C6.11328 20.7617 -0.15625 27.0312 -0.15625 34.7266C-0.15625 42.4219 6.11328 48.6914 13.8086 48.6914C19.3945 48.6914 24.2383 45.3906 26.4648 40.625H29.2969C30.3711 40.625 31.25 41.5039 31.25 42.5781V96.0938C31.25 98.2422 33.0078 100 35.1563 100C37.3047 100 39.0625 98.2422 39.0625 96.0938V42.5781C39.0625 37.1875 34.6875 32.8125 29.2969 32.8125ZM13.8086 40.8789C10.4102 40.8789 7.65625 38.125 7.65625 34.7266C7.65625 31.3281 10.4102 28.5742 13.8086 28.5742C17.207 28.5742 19.9609 31.3281 19.9609 34.7266C19.9609 38.125 17.207 40.8789 13.8086 40.8789Z" fill="url(#paint2_linear_166_118)"/>
</g>
</g>
<defs>
<linearGradient id="paint0_linear_166_118" x1="3.32031" y1="48.5645" x2="96.7092" y2="48.5645" gradientUnits="userSpaceOnUse">
<stop stop-color="#FF884B"/>
<stop offset="0.35" stop-color="#FF634C"/>
<stop offset="0.655" stop-color="#FE4A4F"/>
<stop offset="1" stop-color="#FE4840"/>
</linearGradient>
<linearGradient id="paint1_linear_166_118" x1="3.3203" y1="60.3809" x2="96.7092" y2="60.3809" gradientUnits="userSpaceOnUse">
<stop stop-color="#FF884B"/>
<stop offset="0.35" stop-color="#FF634C"/>
<stop offset="0.655" stop-color="#FE4A4F"/>
<stop offset="1" stop-color="#FE4840"/>
</linearGradient>
<linearGradient id="paint2_linear_166_118" x1="3.32031" y1="60.3809" x2="96.7092" y2="60.3809" gradientUnits="userSpaceOnUse">
<stop stop-color="#FF884B"/>
<stop offset="0.35" stop-color="#FF634C"/>
<stop offset="0.655" stop-color="#FE4A4F"/>
<stop offset="1" stop-color="#FE4840"/>
</linearGradient>
<clipPath id="clip0_166_118">
<rect width="100" height="100" fill="white"/>
</clipPath>
<clipPath id="clip1_166_118">
<rect width="100" height="100" fill="white"/>
</clipPath>
</defs>
</svg>
