<?xml version="1.0" standalone="no"?>
<!DOCTYPE svg PUBLIC "-//W3C//DTD SVG 20010904//EN"
 "http://www.w3.org/TR/2001/REC-SVG-20010904/DTD/svg10.dtd">
<svg version="1.0" xmlns="http://www.w3.org/2000/svg"
 width="600.000000pt" height="331.000000pt" viewBox="0 0 400.000000 331.000000"
 preserveAspectRatio="xMidYMid meet">

<g transform="translate(0.000000,331.000000) scale(0.100000,-0.100000)"
fill="#000000" stroke="none">
<path d="M722 3108 c-39 -13 -118 -81 -127 -108 -4 -12 -15 -20 -28 -20 -32
-1 -98 -33 -124 -61 -56 -62 -71 -179 -34 -284 20 -57 64 -125 81 -125 5 0 14
-16 20 -35 6 -19 26 -46 43 -60 61 -48 104 -103 85 -109 -7 -2 -42 -11 -77
-20 -248 -65 -357 -224 -391 -572 -18 -180 2 -340 56 -446 21 -41 31 -87 48
-218 13 -102 19 -180 14 -205 -45 -251 81 -533 283 -632 94 -46 171 -59 267
-43 60 10 300 11 1087 6 556 -3 1110 -9 1232 -12 l222 -6 3 43 3 43 118 -3
c76 -2 117 1 117 8 0 6 -44 11 -117 13 -87 2 -118 6 -117 16 1 6 2 77 3 156
l1 143 116 -5 c87 -4 115 -2 110 7 -5 7 -40 11 -94 11 -125 0 -132 3 -132 55
0 41 -1 43 -37 48 -21 3 -230 29 -464 58 l-426 52 -68 151 c-205 459 -382 719
-541 797 -69 33 -161 37 -239 11 -33 -12 -63 -18 -66 -14 -4 4 -16 41 -29 82
-34 114 -105 244 -169 310 -64 63 -171 124 -255 143 -32 7 -57 16 -56 20 0 3
12 31 26 61 40 88 49 252 20 376 -5 21 1 29 38 52 25 14 58 45 75 68 95 131
-2 260 -164 217 -48 -12 -52 -12 -89 13 -32 20 -53 25 -115 27 -42 1 -91 -3
-109 -9z m129 -368 c55 -8 94 -8 144 0 37 6 69 9 71 8 2 -2 8 -45 15 -95 21
-166 -20 -316 -101 -369 -76 -51 -208 -39 -297 25 -46 33 -91 115 -100 180 -5
34 -10 41 -35 46 -20 5 -34 17 -45 40 -15 31 -15 36 1 60 15 22 22 25 52 19
31 -6 40 -2 69 26 18 17 40 49 50 70 l17 38 42 -18 c22 -10 75 -23 117 -30z
m-161 -457 c0 -3 -7 -14 -16 -24 -23 -26 -10 -66 35 -109 86 -82 255 -79 295
5 19 39 20 56 4 90 -6 14 -9 28 -5 31 11 12 124 -19 197 -53 108 -52 184 -131
243 -253 25 -52 49 -107 52 -121 l7 -27 -104 -13 c-57 -8 -110 -14 -118 -14
-11 0 -20 22 -30 74 -9 43 -22 77 -29 79 -10 3 -12 -1 -7 -13 10 -27 58 -294
54 -304 -4 -11 -272 24 -416 55 -139 30 -177 26 -226 -22 l-26 -27 0 54 c0
105 -13 249 -22 249 -6 0 -8 -40 -6 -95 l3 -95 -110 0 c-60 0 -147 -3 -193 -7
l-82 -6 6 49 c29 219 109 361 244 433 81 43 250 87 250 64z m112 -42 c54 -15
91 -12 167 10 21 6 35 -46 21 -81 -40 -97 -260 -69 -301 39 -12 29 15 66 40
55 9 -4 42 -14 73 -23z m711 -448 c3 -5 7 -21 11 -38 6 -29 3 -32 -87 -87
-124 -75 -140 -73 -156 24 -6 39 -10 73 -7 75 6 6 162 30 203 32 17 0 34 -2
36 -6z m-932 -173 c1 -60 2 -116 3 -122 1 -9 31 -15 101 -18 l100 -5 83 -54
c74 -48 81 -55 65 -66 -10 -7 -101 -65 -203 -130 l-184 -117 -63 5 c-167 13
-262 125 -292 343 -12 82 -14 206 -5 241 8 29 18 30 222 32 l172 1 1 -110z
m274 46 c61 -14 186 -35 280 -46 93 -12 171 -23 173 -25 3 -3 -312 -203 -332
-211 -6 -2 -54 23 -106 56 l-94 60 -82 0 -82 0 -7 29 c-9 44 11 107 43 129 55
39 66 39 207 8z m820 -246 c4 -6 -6 -10 -24 -10 -16 0 -33 5 -36 10 -4 6 6 10
24 10 16 0 33 -4 36 -10z m-116 -26 c-29 -16 -39 -17 -39 -4 0 13 41 30 54 22
5 -2 -2 -11 -15 -18z m191 -52 c0 -12 -4 -12 -20 3 -11 10 -20 25 -20 33 0 12
4 12 20 -3 11 -10 20 -25 20 -33z m-270 20 c0 -12 -51 -34 -59 -27 -7 8 28 35
46 35 7 0 13 -4 13 -8z m-90 -48 c0 -11 -34 -33 -50 -33 -10 0 -8 6 9 19 23
20 41 26 41 14z m414 -38 c9 -14 12 -27 7 -30 -8 -5 -41 35 -41 49 0 13 19 3
34 -19z m-504 -25 c0 -12 -42 -42 -49 -36 -5 6 29 45 41 45 4 0 8 -4 8 -9z
m558 -66 c14 -31 15 -35 4 -35 -8 0 -32 43 -32 55 0 15 19 1 28 -20z m-654
-16 c-9 -10 -24 -19 -32 -19 -12 0 -10 6 8 25 26 28 50 23 24 -6z m-832 -49
c25 -11 67 -23 93 -27 l46 -6 -93 -60 c-51 -33 -96 -64 -100 -70 -5 -8 -8 -7
-12 3 -5 19 -26 178 -26 204 0 19 1 19 23 -2 12 -11 43 -30 69 -42z m758 2 c0
-14 -39 -46 -47 -39 -3 4 2 16 12 27 19 21 35 26 35 12z m517 -30 c20 -27 103
-186 103 -197 0 -2 -12 -3 -27 0 -16 2 -50 7 -76 10 l-48 6 37 50 36 50 -31
50 c-17 28 -31 52 -31 55 0 13 19 0 37 -24z m-992 -66 c17 -58 19 -89 5 -135
-8 -29 -7 -34 10 -38 11 -3 20 -9 20 -14 0 -12 -27 -11 -50 1 -17 9 -18 13 -4
45 19 47 18 85 -6 152 -11 32 -20 62 -20 68 1 21 31 -32 45 -79z m1255 63 c6
-11 9 -25 7 -32 -2 -7 -11 3 -21 21 -9 17 -12 32 -7 32 6 0 15 -9 21 -21z
m-860 -35 c0 -11 -45 -42 -54 -37 -5 3 2 14 15 24 24 19 39 24 39 13z m917
-97 c-2 -7 -11 2 -20 19 -9 17 -13 34 -10 38 9 9 35 -42 30 -57z m-1017 8
c-12 -13 -27 -22 -32 -19 -12 8 21 44 40 44 12 0 10 -6 -8 -25z m-443 -41
c-10 -10 -47 26 -47 45 0 11 7 8 27 -11 15 -15 24 -31 20 -34z m364 -24 c-23
-20 -41 -26 -41 -14 0 11 34 33 50 33 10 0 8 -6 -9 -19z m1146 -43 c-2 -7 -11
2 -20 19 -9 17 -13 34 -10 38 9 9 35 -42 30 -57z m-1444 29 c9 -7 17 -16 17
-20 0 -12 -18 -6 -41 14 -28 22 -6 28 24 6z m213 -31 c-22 -17 -56 -20 -56 -6
0 10 23 18 55 20 20 0 20 0 1 -14z m1269 -65 c17 -33 18 -40 7 -40 -9 0 -32
44 -32 60 0 18 9 10 25 -20z m52 -133 c-2 -7 -11 2 -20 19 -9 17 -13 34 -10
38 9 9 35 -42 30 -57z m395 -117 c49 -92 56 -101 91 -110 39 -11 44 -19 25
-38 -19 -19 0 -27 20 -9 18 17 63 23 75 11 3 -3 1 -14 -6 -25 -17 -27 -2 -34
22 -10 25 25 59 17 132 -30 54 -34 79 -63 79 -91 0 -17 -21 -18 -387 -16
l-388 3 1 25 c0 14 3 47 5 74 4 46 2 50 -21 57 -24 7 -23 7 6 8 22 1 33 7 37
20 3 15 11 18 27 14 20 -5 19 -1 -15 51 -21 31 -36 58 -34 59 2 2 47 18 99 36
52 18 111 41 130 52 19 10 38 18 42 19 4 0 31 -45 60 -100z m-353 44 c12 -27
7 -45 -8 -28 -14 14 -23 54 -13 54 5 0 14 -12 21 -26z m-801 -171 c-10 -2 -26
-2 -35 0 -10 3 -2 5 17 5 19 0 27 -2 18 -5z m105 -10 c-7 -2 -21 -2 -30 0 -10
3 -4 5 12 5 17 0 24 -2 18 -5z m105 0 c-10 -2 -26 -2 -35 0 -10 3 -2 5 17 5
19 0 27 -2 18 -5z m112 -3 c0 -5 -11 -9 -25 -8 -14 1 -25 6 -25 10 0 4 11 8
25 8 14 0 25 -4 25 -10z m93 -7 c-7 -2 -21 -2 -30 0 -10 3 -4 5 12 5 17 0 24
-2 18 -5z m105 0 c-10 -2 -26 -2 -35 0 -10 3 -2 5 17 5 19 0 27 -2 18 -5z
m112 -9 c0 -2 -11 -4 -25 -4 -14 0 -25 4 -25 9 0 4 11 6 25 3 14 -2 25 -6 25
-8z m93 -1 c-7 -2 -21 -2 -30 0 -10 3 -4 5 12 5 17 0 24 -2 18 -5z m830 -30
c-7 -2 -21 -2 -30 0 -10 3 -4 5 12 5 17 0 24 -2 18 -5z m102 -3 c18 -8 17 -9
-7 -9 -16 -1 -28 4 -28 9 0 12 8 12 35 0z m108 -7 c-7 -2 -21 -2 -30 0 -10 3
-4 5 12 5 17 0 24 -2 18 -5z m100 0 c-7 -2 -21 -2 -30 0 -10 3 -4 5 12 5 17 0
24 -2 18 -5z m82 -3 c3 -5 1 -10 -4 -10 -6 0 -11 5 -11 10 0 6 2 10 4 10 3 0
8 -4 11 -10z"/>
<path d="M932 2673 c-41 -8 -18 -25 36 -27 39 -1 49 1 39 10 -16 15 -46 22
-75 17z"/>
<path d="M710 2650 c-8 -5 -12 -11 -10 -14 8 -8 100 6 100 15 0 12 -71 11 -90
-1z"/>
<path d="M530 2600 c0 -19 3 -21 12 -12 9 9 9 15 0 24 -9 9 -12 7 -12 -12z"/>
<path d="M964 2586 c-7 -19 3 -36 22 -36 10 0 14 8 12 22 -4 26 -26 36 -34 14z"/>
<path d="M733 2574 c-8 -21 13 -42 28 -27 13 13 5 43 -11 43 -6 0 -13 -7 -17
-16z"/>
<path d="M880 2554 c0 -25 6 -47 15 -54 22 -18 18 -40 -7 -40 -16 0 -19 -3
-11 -11 8 -8 17 -8 32 0 24 13 28 49 6 57 -8 4 -15 18 -15 33 0 14 -5 33 -10
41 -7 11 -10 4 -10 -26z"/>
<path d="M810 2391 c0 -24 73 -41 114 -25 29 11 16 19 -31 19 -27 1 -56 4 -65
9 -11 5 -18 4 -18 -3z"/>
<path d="M3649 838 c-4 -37 24 -83 43 -72 5 3 2 14 -6 23 -9 10 -16 25 -16 34
0 19 -20 34 -21 15z"/>
<path d="M3620 731 c0 -23 36 -69 46 -59 4 5 0 16 -9 26 -10 10 -17 26 -17 35
0 9 -4 17 -10 17 -5 0 -10 -9 -10 -19z"/>
</g>
</svg>
