<svg xmlns="http://www.w3.org/2000/svg" width="672.532" height="732.746" viewBox="0 0 672.532 732.746" >
  <g id="taken" transform="translate(0 0.001)">
    <path id="Path_1" data-name="Path 1" d="M730.734,230.607c-46.62-7.44-99.71-11.41-155-11.41-50.6,0-99.35,3.32-142.98,9.58.01-.67.02-1.34.05-2.01a149,149,0,0,1,297.91,1.82C730.724,229.267,730.734,229.937,730.734,230.607Z" transform="translate(-263.734 -80.803)" fill="#dba21d"/>
    <g id="Group_1" data-name="Group 1" transform="translate(168.569 -0.001)" opacity="0.1">
      <path id="Path_2" data-name="Path 2" d="M601.285,82.144A149.047,149.047,0,0,0,432.353,225.373c-.03.67-.04,1.34-.05,2.01,12.962-1.86,26.385-3.454,40.165-4.784A149.022,149.022,0,0,1,601.285,82.144Z" transform="translate(-432.303 -80.802)" fill="#fff"/>
    </g>
    <path id="Path_3" data-name="Path 3" d="M795.914,242.427a600.146,600.146,0,0,0-65.2-13.84,943.361,943.361,0,0,0-108.74-10.45c-15.171-.62-30.62-.94-46.24-.94-12.38,0-24.66.2-36.77.6a973.3,973.3,0,0,0-106.16,8.97,624.291,624.291,0,0,0-77.25,15.66c-59.21,16.37-91.82,38.31-91.82,61.77s32.61,45.4,91.82,61.77c41.64,11.52,92.98,19.37,148.92,22.97,23.09,1.5,46.96,2.26,71.26,2.26,24.38,0,48.33-.77,71.49-2.27,50.91-3.29,98.01-10.1,137.43-20,.21-.06.41-.11.62-.16,2.66-.66,5.28-1.35,7.87-2.04.93-.26,1.85-.51,2.77-.76a.973.973,0,0,1,.16-.05c.88-.24,1.75-.49,2.62-.73,1.74-.5,3.46-.99,5.15-1.5.08-.02.15-.04.22-.06,1.47-.44,2.91-.88,4.34-1.32,1.17-.37,2.33-.73,3.48-1.1q1.26-.4,2.49-.81c.6-.2,1.19-.39,1.77-.59.79-.26,1.58-.53,2.36-.8.33-.11.66-.22.98-.34.75-.25,1.48-.51,2.21-.77.79-.28,1.58-.57,2.36-.85.65-.23,1.3-.47,1.94-.71.54-.21,1.07-.41,1.61-.61,1.47-.55,2.91-1.12,4.33-1.68.71-.29,1.42-.57,2.12-.86s1.39-.57,2.07-.86q1.679-.705,3.3-1.41c.52-.24,1.05-.47,1.56-.69.39-.18.77-.35,1.16-.53.28-.12.56-.25.83-.38,1.01-.46,2.01-.93,2.99-1.4q5.64-2.7,10.53-5.52c20.45-11.71,31.24-24.7,31.24-38.2C887.734,280.737,855.124,258.8,795.914,242.427Zm-.54,121.62c-41.69,11.53-93.17,19.38-149.26,22.95-22.81,1.45-46.39,2.2-70.38,2.2-23.91,0-47.41-.74-70.15-2.19-56.18-3.56-107.74-11.41-149.49-22.96-58.27-16.12-90.36-37.37-90.36-59.85a24.117,24.117,0,0,1,.74-5.89c5.1-20.28,36.47-39.26,89.62-53.96a623.806,623.806,0,0,1,76.66-15.57,976.032,976.032,0,0,1,106.8-9q17.88-.585,36.18-.58c15.41,0,30.65.31,45.63.91a941.384,941.384,0,0,1,109.37,10.5,598.876,598.876,0,0,1,64.64,13.74c53.14,14.7,84.5,33.67,89.61,53.94a23.82,23.82,0,0,1,.75,5.91C885.734,326.677,853.644,347.927,795.374,364.047Z" transform="translate(-263.734 -82.168)" fill="#1f7c9e"/>
    <path id="Path_4" data-name="Path 4" d="M887.164,305.107c0,13.36-11.01,26-30.67,37.29-3.27,1.88-6.79,3.72-10.53,5.52-.98.47-1.98.94-2.99,1.4-.27.13-.55.26-.83.38-.39.18-.77.35-1.16.53-.51.22-1.04.45-1.56.69q-1.62.705-3.3,1.41c-.68.29-1.38.58-2.07.86s-1.41.57-2.12.86c-1.42.56-2.86,1.13-4.33,1.68-.54.2-1.07.4-1.61.61-.64.24-1.29.48-1.94.71-.78.28-1.57.57-2.36.85-.73.26-1.46.52-2.21.77-.32.12-.65.23-.98.34-.78.27-1.57.54-2.36.8-.58.2-1.17.39-1.77.59q-1.23.4-2.49.81c-1.15.37-2.31.73-3.48,1.1-1.43.44-2.87.88-4.34,1.32-.07.02-.14.04-.22.06-1.69.51-3.41,1-5.15,1.5-.87.24-1.74.49-2.62.73a.973.973,0,0,0-.16.05c-.92.25-1.84.5-2.77.76-2.58.68-5.21,1.37-7.87,2.04-.21.05-.41.1-.62.16-38.35,9.58-85.4,16.56-137.47,19.93-22.81,1.47-46.59,2.25-71.02,2.25-24.65,0-48.63-.79-71.62-2.29-137.24-8.95-239.38-43.03-239.38-83.71a25.072,25.072,0,0,1,1.12-7.3c.06.17.12.33.19.5,14.27,37.48,115.54,67.77,246.94,75.16,20.13,1.14,40.98,1.73,62.32,1.73,21.43,0,42.36-.6,62.57-1.74,131.29-7.42,232.46-37.72,246.68-75.17q.36-.9.63-1.8a25.3,25.3,0,0,1,1.551,8.62Z" transform="translate(-263.734 -82.696)" fill="#424156"/>
    <g id="circle_light5" transform="translate(497.338 191.587)">
      <g id="Ellipse_20" data-name="Ellipse 20" transform="translate(0.661 -0.416)" fill="#fff" stroke="#707070" stroke-width="1">
        <ellipse cx="34.33" cy="10.215" rx="34.33" ry="10.215" stroke="none"/>
        <ellipse cx="34.33" cy="10.215" rx="33.83" ry="9.715" fill="none"/>
      </g>
    </g>
    <g id="circle_light4" transform="translate(426.338 238.217)">
      <g id="Ellipse_18" data-name="Ellipse 18" transform="translate(-0.339 -0.046)" fill="#fff" stroke="#707070" stroke-width="1">
        <ellipse cx="34.33" cy="10.215" rx="34.33" ry="10.215" stroke="none"/>
        <ellipse cx="34.33" cy="10.215" rx="33.83" ry="9.715" fill="none"/>
      </g>
    </g>
    <g id="circle_light3" transform="translate(277.338 260.044)">
      <g id="Ellipse_19" data-name="Ellipse 19" transform="translate(0.001)" fill="#fff" stroke="#707070" stroke-width="1">
        <ellipse cx="34.33" cy="10.215" rx="34.33" ry="10.215" stroke="none"/>
        <ellipse cx="34.33" cy="10.215" rx="33.83" ry="9.715" fill="none"/>
      </g>
    </g>
    <g id="circle_light2" transform="translate(128.338 238.217)">
      <g id="Ellipse_17" data-name="Ellipse 17" transform="translate(-1.339 -0.046)" fill="#fff" stroke="#707070" stroke-width="1">
        <ellipse cx="34.33" cy="10.215" rx="34.33" ry="10.215" stroke="none"/>
        <ellipse cx="34.33" cy="10.215" rx="33.83" ry="9.715" fill="none"/>
      </g>
    </g>
    <g id="circle_light1" transform="translate(57.339 191.587)">
      <g id="circle1" data-name="Ellipse 16" transform="translate(0.001)"  stroke="#707070" stroke-width="1">
        <ellipse cx="34.33" cy="10.215" rx="34.33" ry="10.215" stroke="none"/>
        <ellipse cx="34.33" cy="10.215" rx="33.83" ry="9.715" fill="none"/>
      </g>
    </g>
    <g id="monster2" transform="translate(294.966 405.164)">
      <circle id="Ellipse_1" data-name="Ellipse 1" cx="42.012" cy="42.012" r="42.012" fill="#2f2e41"/>
    </g>
    <g id="m2_left_leg" transform="translate(300.555 474.541)">
      <rect id="Rectangle_1" data-name="Rectangle 1" width="22.868" height="12.763" transform="translate(0 10.239) rotate(-26.601)" fill="#2f2e41"/>
    </g>
    <g id="m2_shoe_left" transform="translate(289.009 479.964)">
      <ellipse id="Ellipse_2" data-name="Ellipse 2" cx="3.989" cy="10.636" rx="3.989" ry="10.636" transform="translate(0 6.66) rotate(-56.601)" fill="#2f2e41"/>
    </g>
    <g id="m2_leg_right" transform="translate(347.238 474.532)">
      <rect id="Rectangle_2" data-name="Rectangle 2" width="12.763" height="22.868" transform="translate(0 11.412) rotate(-63.399)" fill="#2f2e41"/>
    </g>
    <g id="m2_shoe_right" transform="translate(362.793 479.967)">
      <ellipse id="Ellipse_3" data-name="Ellipse 3" cx="10.636" cy="3.989" rx="10.636" ry="3.989" transform="translate(0 11.71) rotate(-33.399)" fill="#2f2e41"/>
    </g>
    <circle id="Ellipse_4" data-name="Ellipse 4" cx="14.359" cy="14.359" r="14.359" transform="translate(319.678 422.678)" fill="#fff"/>
    <ellipse id="Ellipse_5" data-name="Ellipse 5" cx="4.766" cy="4.8" rx="4.766" ry="4.8" transform="translate(327.375 430.925) rotate(-45)" fill="#3f3d56"/>
    <g id="m2_hat" transform="translate(307.926 372.478)">
      <path id="Path_10" data-name="Path 10" d="M633.854,485.8c.632-15.554-12.773-28.728-29.941-29.425s-31.6,11.346-32.229,26.9,11.3,19.087,28.47,19.785S633.222,501.356,633.854,485.8Z" transform="translate(-571.661 -456.348)" fill="#6c63ff"/>
    </g>
    <g id="m2_right_arm" transform="translate(361.967 433)">
      <ellipse id="Ellipse_6" data-name="Ellipse 6" cx="6.594" cy="21.006" rx="6.594" ry="21.006" transform="translate(0 8.591) rotate(-40.645)" fill="#2f2e41"/>
    </g>
    <g id="m2_left_arm" transform="translate(274.733 432.995)">
      <ellipse id="Ellipse_7" data-name="Ellipse 7" cx="21.006" cy="6.594" rx="21.006" ry="6.594" transform="translate(0 31.877) rotate(-49.355)" fill="#2f2e41"/>
    </g>
    <path id="Path_11" data-name="Path 11" d="M612.251,548.064a9.572,9.572,0,0,1-18.835,3.429l0-.018c-.942-5.2,3.08-7.043,8.283-7.985S611.309,542.862,612.251,548.064Z" transform="translate(-263.734 -84.419)" fill="#fff"/>
    <path id="Path_12" data-name="Path 12" d="M529.734,576.2a2,2,0,0,1-2-2v-118a2,2,0,0,1,4,0v118a2,2,0,0,1-2,2Z" transform="translate(-263.734 -84.225)" fill="#ccc"/>
    <path id="Path_13" data-name="Path 13" d="M499.734,682.2a2,2,0,0,1-2-2v-86a2,2,0,0,1,4,0v86a2,2,0,0,1-2,2Z" transform="translate(-263.734 -85.258)" fill="#ccc"/>
    <path id="Path_14" data-name="Path 14" d="M576.734,611.2a2,2,0,0,1-2-2v-118a2,2,0,0,1,4,0v118a2,2,0,0,1-2,2Z" transform="translate(-263.734 -84.546)" fill="#ccc"/>
    <path id="Path_15" data-name="Path 15" d="M547.734,696.2a2,2,0,0,1-2-2v-48a2,2,0,0,1,4,0v48a2,2,0,0,1-2,2Z" transform="translate(-263.734 -85.44)" fill="#ccc"/>
    <path id="Path_16" data-name="Path 16" d="M588.734,450.2a2,2,0,0,1-2-2v-48a2,2,0,0,1,4,0v48a2,2,0,0,1-2,2Z" transform="translate(-263.734 -83.415)" fill="#ccc"/>
    <path id="Path_17" data-name="Path 17" d="M488.734,471.2a2,2,0,0,1-2-2v-48a2,2,0,0,1,4,0v48a2,2,0,0,1-2,2Z" transform="translate(-263.734 -83.588)" fill="#ccc"/>
    <path id="Path_18" data-name="Path 18" d="M662.734,476.2a2,2,0,0,1-2-2v-48a2,2,0,0,1,4,0v48a2,2,0,0,1-2,2Z" transform="translate(-263.734 -83.629)" fill="#ccc"/>
    <path id="Path_19" data-name="Path 19" d="M658.734,626.2a2,2,0,0,1-2-2v-58a2,2,0,0,1,4,0v58a2,2,0,0,1-2,2Z" transform="translate(-263.734 -84.84)" fill="#ccc"/>
    <path id="Path_20" data-name="Path 20" d="M618.734,677.2a2,2,0,0,1-2-2v-86a2,2,0,0,1,4,0v86a2,2,0,0,1-2,2Z" transform="translate(-263.734 -85.215)" fill="#ccc"/>
    <path id="Path_21" data-name="Path 21" d="M626.734,530.2a2,2,0,0,1-2-2v-118a2,2,0,0,1,4,0v118a2,2,0,0,1-2,2Z" transform="translate(-263.734 -83.803)" fill="#ccc"/>
    <g id="m1_arm_right" transform="translate(575.364 657.487)">
      <ellipse id="Ellipse_8" data-name="Ellipse 8" cx="6.76" cy="21.534" rx="6.76" ry="21.534" transform="translate(0 8.679) rotate(-39.938)" fill="#2f2e41"/>
    </g>
    <g id="monster1" transform="translate(494.085 616.381)">
      <circle id="Ellipse_9" data-name="Ellipse 9" cx="43.067" cy="43.067" r="43.067" transform="matrix(0.316, -0.949, 0.949, 0.316, 0, 81.714)" fill="#2f2e41"/>
    </g>
    <g id="legs_m1_right" transform="translate(553.707 704.653)">
      <rect id="Rectangle_3" data-name="Rectangle 3" width="13.084" height="23.442" fill="#2f2e41"/>
    </g>
    <g id="leg_m1_left" transform="translate(527.54 704.653)">
      <rect id="Rectangle_4" data-name="Rectangle 4" width="13.084" height="23.442" fill="#2f2e41"/>
    </g>
    <g id="shoe_m1_right" transform="translate(544.985 724.278)">
      <ellipse id="Ellipse_10" data-name="Ellipse 10" cx="10.903" cy="4.089" rx="10.903" ry="4.089" fill="#2f2e41"/>
    </g>
    <g id="shoe_m1_left" transform="translate(518.817 723.733)">
      <ellipse id="Ellipse_11" data-name="Ellipse 11" cx="10.903" cy="4.089" rx="10.903" ry="4.089" fill="#2f2e41"/>
    </g>
    <g id="hat_m1" transform="translate(534.431 595.319)">
      <path id="Path_22" data-name="Path 22" d="M798.774,703.169c3.846-15.487,20.821-24.6,37.915-20.356s27.834,20.24,23.989,35.727-16.6,15.537-33.7,11.292S794.928,718.656,798.774,703.169Z" transform="translate(-798.165 -681.771)" fill="#d91f1f"/>
    </g>
    <g id="m1_arm_left" transform="translate(477.703 635.533)">
      <ellipse id="Ellipse_12" data-name="Ellipse 12" cx="6.76" cy="21.534" rx="6.76" ry="21.534" transform="translate(0 12.216) rotate(-64.626)" fill="#2f2e41"/>
    </g>
    <circle id="Ellipse_13" data-name="Ellipse 13" cx="14.359" cy="14.359" r="14.359" transform="translate(527.765 647.407)" fill="#fff"/>
    <circle id="Ellipse_14" data-name="Ellipse 14" cx="4.786" cy="4.786" r="4.786" transform="translate(531.436 651.833)" fill="#3f3d56"/>
    <circle id="Ellipse_15" data-name="Ellipse 15" cx="6" cy="6" r="6" transform="translate(536 685.745)" fill="#fff"/>
    <path id="Path_23" data-name="Path 23" d="M935.266,819.2h-236a1,1,0,0,1,0-2h236a1,1,0,0,1,0,2Z" transform="translate(-263.734 -86.452)" fill="#3f3d56"/>
  </g>
</svg>
